<svg xmlns="http://www.w3.org/2000/svg" xmlns:xlink="http://www.w3.org/1999/xlink" width="100" height="100" viewBox="0 0 100 100"><g><circle stroke="none" fill="#1A1A1A" r="48%" cx="50%" cy="50%"></circle><g transform="translate(50 50) scale(0.69 0.69) rotate(0) translate(-50 -50)" style="fill:#FFFFFF;"><svg fill="#FFFFFF" xmlns:dc="http://purl.org/dc/elements/1.1/" xmlns:cc="http://creativecommons.org/ns#" xmlns:rdf="http://www.w3.org/1999/02/22-rdf-syntax-ns#" xmlns:svg="http://www.w3.org/2000/svg" xmlns="http://www.w3.org/2000/svg" xmlns:sodipodi="http://sodipodi.sourceforge.net/DTD/sodipodi-0.dtd" xmlns:inkscape="http://www.inkscape.org/namespaces/inkscape" version="1.1" x="0px" y="0px" viewBox="0 0 16 16" style="enable-background:new 0 0 16 16;" xml:space="preserve"><style type="text/css">
	.st0{fill:none;stroke:#FFFFFF;stroke-miterlimit:10;}
	.st1{fill:none;stroke:#FFFFFF;stroke-linecap:round;stroke-linejoin:round;stroke-miterlimit:10;}
	.st2{fill:#FFFFFF;}
</style><path style="" d="M 4.0039062 1 C 2.8989063 1 2 1.8989062 2 3.0039062 L 2 13.996094 C 2 15.101094 2.8989063 16 4.0039062 16 L 11.996094 16 C 13.100094 16 14 15.101094 14 13.996094 L 14 5.5214844 C 14 5.4984844 13.989328 5.4770781 13.986328 5.4550781 C 13.983328 5.4330781 13.979609 5.4155313 13.974609 5.3945312 C 13.952609 5.3105313 13.915516 5.2299688 13.853516 5.1679688 L 9.8535156 1.1679688 C 9.8385156 1.1529687 9.8187344 1.152625 9.8027344 1.140625 C 9.7097344 1.051625 9.5860312 1 9.4570312 1 L 4.0039062 1 z M 4.0039062 2 L 9 2 L 9 4.03125 C 9 5.12825 9.8922812 6.0214844 10.988281 6.0214844 L 13 6.0214844 L 13 13.996094 C 13 14.549094 12.549094 15 11.996094 15 L 4.0039062 15 C 3.4509063 15 3 14.549094 3 13.996094 L 3 3.0039062 C 3 2.4509063 3.4509062 2 4.0039062 2 z M 10 2.7441406 C 10.676 3.4161406 11.594063 4.3294844 12.289062 5.0214844 L 10.988281 5.0214844 C 10.443281 5.0214844 10 4.57725 10 4.03125 L 10 2.7441406 z M 11.197266 10.835938 L 9.4296875 12.603516 L 8.9101562 12.083984 L 8.203125 12.791016 L 9.0761719 13.664062 C 9.1701719 13.757062 9.2966875 13.810547 9.4296875 13.810547 C 9.5626875 13.810547 9.6892031 13.757062 9.7832031 13.664062 L 11.904297 11.542969 L 11.197266 10.835938 z " fill="#FFFFFF" stroke="none"></path></svg></g></g></svg>